<?xml version="1.0" encoding="UTF-8" standalone="no"?>
<svg
   width="424"
   height="424"
   viewBox="0 0 424 424"
   fill="none"
   version="1.1"
   id="svg10"
   sodipodi:docname="bonsai coaster v2.svg"
   xml:space="preserve"
   inkscape:version="1.3.2 (091e20ef0f, 2023-11-25)"
   inkscape:export-filename="bonsai coaster v2-bushonly.svg"
   inkscape:export-xdpi="96"
   inkscape:export-ydpi="96"
   xmlns:inkscape="http://www.inkscape.org/namespaces/inkscape"
   xmlns:sodipodi="http://sodipodi.sourceforge.net/DTD/sodipodi-0.dtd"
   xmlns="http://www.w3.org/2000/svg"
   xmlns:svg="http://www.w3.org/2000/svg"><defs
     id="defs10" /><sodipodi:namedview
     id="namedview10"
     pagecolor="#ffffff"
     bordercolor="#000000"
     borderopacity="0.25"
     inkscape:showpageshadow="2"
     inkscape:pageopacity="0.0"
     inkscape:pagecheckerboard="0"
     inkscape:deskcolor="#d1d1d1"
     inkscape:zoom="1.248679"
     inkscape:cx="194.60566"
     inkscape:cy="172.18196"
     inkscape:window-width="1746"
     inkscape:window-height="1368"
     inkscape:window-x="0"
     inkscape:window-y="0"
     inkscape:window-maximized="0"
     inkscape:current-layer="svg10" /><path
     fill-rule="evenodd"
     clip-rule="evenodd"
     d="M212 424C329.084 424 424 329.084 424 212C424 94.9156 329.084 0 212 0C94.9156 0 0 94.9156 0 212C0 329.084 94.9156 424 212 424ZM212 397C314.173 397 397 314.173 397 212C397 109.827 314.173 27 212 27C109.827 27 27 109.827 27 212C27 314.173 109.827 397 212 397Z"
     fill="#744E31"
     id="path1" /><path
     d="M210 403C192.014 402.098 161 398 161 398L163.5 380.5C163.5 380.5 161.637 369.888 157 365.5C153.384 362.079 150.228 361.558 145.5 360C140.043 358.202 136.725 357.995 131 357.5C125.164 356.996 121.845 357.885 116 357.5C107.512 356.941 102.543 356.771 94.5 354C88.9678 352.094 85.995 350.548 81 347.5C75.2985 344.021 72.3002 341.644 67.5 337C62.415 332.08 58.8923 329.457 56 323C53.7923 318.071 51.462 315.314 50.5 310C49.029 301.873 49.4154 296.687 50.5 288.5C51.3677 281.95 52.3968 278.038 56 272.5C59.3891 267.291 62.2097 264.761 67.5 261.5C76.6284 255.873 83.7777 256.347 94.5 256.5C104.455 256.642 109.918 258.795 119.5 261.5C130.981 264.741 136.58 269.048 148 272.5C160.428 276.257 167.723 281.805 180.5 279.5C187.566 278.225 191.825 276.897 197.5 272.5C203.583 267.787 207.566 264.06 209 256.5C210.342 249.425 207.725 245.165 205 238.5C202.008 231.181 197.463 228.609 194 221.5C189.699 212.672 187.143 207.299 186.5 197.5C185.685 185.071 187.247 176.966 194 166.5C197.447 161.158 200.281 158.76 205 154.5C211.352 148.765 215.528 146.173 223 142C233.954 135.881 242.41 137.23 253 130.5C257.12 127.882 260.529 127.21 263 123C264.157 121.029 264.763 119.773 265 117.5C265.334 114.297 263 109.5 263 109.5L272 107.5V117.5V123L287 107.5H294L283.5 120.5C283.5 120.5 288.524 117.998 291.5 116C295.755 113.142 301.5 107.5 301.5 107.5L307.5 113.5C307.5 113.5 298.121 120.005 291.5 123C286.773 125.138 283.702 125.307 279 127.5C274.72 129.496 272.087 130.427 268.5 133.5C267.032 134.758 265 137 265 137C265 137 289.464 138.63 305 137C313.46 136.112 318.646 136.767 326.5 133.5C332.501 131.004 336.248 129.416 340.5 124.5C342.626 122.042 343.623 120.444 345 117.5C346.387 114.535 347.5 109.5 347.5 109.5L352.5 112L347.5 124.5L359.5 112L363.5 116L356 124.5C356 124.5 366.273 116.744 371 117.5C376.621 118.399 376 109.5 376 109.5L382.5 112C382.5 112 369.044 129.149 359.5 130.5C353.63 131.331 350.487 132.754 345 135C336.662 138.413 333.404 143.252 325 146.5C313.562 150.921 306.259 151.182 294 151.5C285.391 151.723 280.609 150.201 272 150C267.51 149.895 264.987 149.806 260.5 150C254.618 150.254 251.169 149.912 245.5 151.5C235.331 154.349 223 166.5 223 166.5C223 166.5 212.956 176.787 213 185C213.027 190.125 217 197.5 217 197.5C217 197.5 219.932 205.253 223 209.5C227.13 215.218 231.38 216.648 236.5 221.5C243.216 227.864 253 238.5 253 238.5C253 238.5 262.221 248.496 263 256.5C263.948 266.248 257.931 271.038 253 279.5C247.672 288.645 244.953 294.631 236.5 301C229.802 306.047 225.271 308.608 217 310C206.648 311.742 190.5 305.5 190.5 305.5C190.5 305.5 179.057 301.867 173.5 305.5C171.42 306.86 169.731 307.625 169 310C167.895 313.59 170.825 315.863 173.5 318.5C177.326 322.271 181.358 321.444 186.5 323C205.398 328.72 236.5 330.5 236.5 330.5C236.5 330.5 254.961 333.695 263 341.5C269.396 347.709 271.986 352.817 274 361.5C275.677 368.728 280.06 385.789 276 392C273.155 396.352 271.065 395.512 266.5 398C247.919 408.127 231.135 404.059 210 403Z"
     fill="#744E31"
     id="path2" /><path
     d="M176 168C179.282 173.931 187.5 181 187.5 181L186.5 192L179 185.5C179 185.5 172.81 179.517 168 177C163.19 174.483 143.966 169.086 128 167C118.109 165.707 112.256 167.579 102.5 165.5C89.5856 162.748 71.5 152 71.5 152L78.5 148.5L106 158L92 149.5L100 145L113.5 156.5L108.5 148.5L113.5 146.5C113.5 146.5 117.338 153.62 121.5 157C128.965 163.064 138.435 160.493 148 161.5C157.5 162.5 168 168 168 168C168 168 164.604 156.985 160.5 151C155.419 143.59 143.5 135.5 143.5 135.5L145.5 130.5L160.5 145L156 134H166L168 143.5L170 135.5L176 134C176 134 171.485 142.53 171 148.5C170.363 156.336 172.193 161.122 176 168Z"
     fill="#744E31"
     id="path3" /><path
     d="M280 259.5C272.806 262.924 260.5 265.5 260.5 265.5L259.5 249.5C259.5 249.5 270.396 245.924 276.5 242C282.665 238.036 287.098 235.992 290.5 229.5C293.095 224.547 292.505 221.002 293.5 215.5C294.763 208.516 296 197.5 296 197.5H306.5C306.5 197.5 303.939 201.907 303 205C301.072 211.353 303 222 303 222C303 222 305.272 219.673 306.5 218C310.774 212.175 312.5 200.5 312.5 200.5L319.5 205L312.5 222C312.5 222 319.314 215.648 324 213.5L336 208L341 215.5C341 215.5 332.246 218.578 327.5 222C324.026 224.505 322.574 226.519 319.5 229.5C316.725 232.192 315.352 233.89 312.5 236.5C306.536 241.957 302.611 244.348 296 249C289.888 253.301 286.749 256.288 280 259.5Z"
     fill="#744E31"
     id="path4" /><path
     d="M202.5 250C206.455 252.862 210 260 210 260L211.5 250C212.086 246.095 211.467 243.687 209 241C207.46 239.323 206.002 239.086 204 238C202.465 237.167 201.648 236.578 200 236C197.758 235.214 196.352 235.335 194 235C190.307 234.473 188.23 234.014 184.5 234C179.777 233.982 177.105 234.451 172.5 235.5C168.707 236.364 166.809 237.706 163 238.5C159.918 239.143 158.131 239.828 155 239.5C150.996 239.081 149.178 237.136 145.5 235.5C139.755 232.945 131 228.5 131 228.5L127.5 231C127.5 231 129.667 234 131 235C132.333 236 136.271 239.373 135.5 241C134.729 242.627 132.789 241.796 131 242C127.328 242.42 125.164 241.893 121.599 241.024L121.5 241C118.258 240.21 116.444 239.57 113.5 238C110.054 236.162 108.241 234.782 105.5 232C103.252 229.719 100.5 225.5 100.5 225.5L97.5 222L90 224L93 231C93 231 96.4676 234.556 98.5 237C99.2994 237.961 100.5 239.5 100.5 239.5C96.79 239.109 94.6304 239.358 91 238.5C85.8098 237.273 82.768 236.198 78.5 233C74.7367 230.18 70.5 224 70.5 224L59.5 223C59.5 223 62.9438 230.356 66.5 234C71.0842 238.698 75.0838 239.657 81 242.5C86.2946 245.044 89.3333 246.453 95 248C105.012 250.734 121.5 250 121.5 250C121.5 250 143.934 252.306 158 250C164.543 248.927 167.914 246.763 174.5 246C180.707 245.281 184.352 244.882 190.5 246C195.36 246.884 198.498 247.104 202.5 250Z"
     fill="#744E31"
     id="path5" /><path
     style="fill:#6ed975;fill-opacity:1;stroke-width:6.23546"
     d="m 203.43767,95.58322 c 5.68853,2.43985 11.58936,4.57491 17.68039,5.67635 4.21167,0.7616 8.55129,0.82304 12.82565,0.60497 4.81363,-0.24556 10.12476,-4.556971 14.29906,-2.147626 1.85174,1.068796 1.21555,10.258116 12.65616,15.696866 3.19287,1.51787 6.9238,1.69457 10.45851,1.7638 16.42468,0.32164 14.77171,-6.52859 20.45841,-6.85569 3.04088,-0.17492 5.36197,3.14121 8.35708,3.69534 3.28973,0.60864 6.83404,0.50235 10.02383,-0.50607 2.72183,-0.86048 5.07424,-2.71119 7.24624,-4.56306 1.0027,-0.8549 1.40588,-2.43149 2.60868,-2.96982 3.58605,-1.60501 8.00009,1.14468 11.78702,0.0978 3.17273,-0.87712 6.3205,-2.61602 8.4298,-5.14247 2.00714,-2.404081 3.01032,-5.655602 3.38175,-8.765043 0.38892,-3.256508 -0.11235,-6.690521 -1.27989,-9.755545 -1.1055,-2.902163 -2.77156,-5.819656 -5.24115,-7.703445 -2.46961,-1.883788 -6.76209,-0.689508 -8.81605,-3.019277 -1.7071,-1.936328 -0.54433,-5.213624 -1.5698,-7.582338 -0.85618,-1.977705 -2.0612,-3.911809 -3.71952,-5.288581 -4.00222,-3.322701 -10.08416,-3.881061 -10.16863,-3.937002 -1.80855,-1.197651 -1.80525,-4.03924 -3.30892,-5.602455 -1.58676,-1.649591 -3.64369,-2.878115 -5.77264,-3.719232 -2.38228,-0.941196 -4.99899,-1.332864 -7.56009,-1.377148 -1.77372,-0.03067 -3.53539,0.380471 -5.26554,0.772171 -1.70134,0.38518 -4.1432,3.064164 -4.99987,1.544904 -6.3773,-11.309936 -18.81223,-19.882218 -35.96466,-9.590028 -2.46539,1.479327 -3.23249,5.39145 -5.9903,6.205187 -3.63931,1.073847 -7.31138,-2.200234 -11.08648,-2.584859 -3.06882,-0.312665 -6.21527,-0.307006 -9.25089,0.240535 -3.21727,0.580298 -6.30523,1.820449 -9.27512,3.18647 -3.23261,1.486842 -6.14243,3.593043 -9.20272,5.408008 -4.82565,2.861931 -8.79214,12.32317 -7.99539,18.471697 0.2241,1.729523 2.01218,3.318181 1.54569,4.998594 -0.38645,1.391969 -4.88197,1.596125 -6.56991,5.021923 -1.02431,2.07888 -1.07674,4.67194 -0.55574,6.930162 0.48755,2.113206 1.82394,4.021458 3.3089,5.602444 1.11901,1.191354 2.66252,1.901725 4.05779,2.753183 1.44851,0.883955 2.90879,1.770406 4.46835,2.439305 z"
     id="path11"
     sodipodi:nodetypes="ssssssssssssssssssssssssssssssssssssss" /><path
     style="fill:#6ed975;fill-opacity:1;stroke-width:6.23546"
     d="m 271.52833,207.31388 c 5.96119,1.66625 12.09253,3.00232 18.27571,3.28869 4.2754,0.19801 8.58504,-0.3149 12.79303,-1.09624 4.73889,-0.8799 9.4333,-5.85573 13.88953,-4.0195 1.97681,0.81457 2.56128,10.00732 14.62058,13.88556 3.36554,1.08236 7.08708,0.76418 10.5999,0.36542 16.323,-1.85297 13.77875,-8.42449 19.37227,-9.50065 2.99105,-0.57547 5.73024,2.40463 8.77233,2.55786 3.34132,0.16831 6.84045,-0.4057 9.86889,-1.82705 2.58416,-1.21282 4.6712,-3.35833 6.57926,-5.48114 0.88085,-0.97998 1.07203,-2.59603 2.19308,-3.28868 3.34234,-2.06509 8.08121,0.0768 11.69646,-1.46164 3.02889,-1.28894 5.91909,-3.42879 7.6758,-6.21197 1.67164,-2.64837 2.23607,-6.00398 2.19309,-9.13524 -0.0451,-3.27934 -0.99604,-6.61691 -2.5586,-9.50065 -1.47954,-2.7305 -3.51674,-5.40208 -6.21374,-6.94278 -2.69701,-1.5407 -6.79388,0.21068 -9.13787,-1.82704 -1.94814,-1.69361 -1.22893,-5.09587 -2.5586,-7.3082 -1.11017,-1.84713 -2.56035,-3.60491 -4.38616,-4.75032 -4.40643,-2.76432 -10.50879,-2.51358 -10.59992,-2.55786 -1.95103,-0.948 -2.32349,-3.76508 -4.02066,-5.11574 -1.79095,-1.42529 -3.99226,-2.37105 -6.21374,-2.92327 -2.48581,-0.61794 -5.13133,-0.66016 -7.6758,-0.36541 -1.7622,0.20413 -3.45404,0.8446 -5.1172,1.46163 -1.63547,0.60676 -3.70166,3.58511 -4.75169,2.19246 -7.81679,-10.36738 -21.27602,-17.22016 -36.91694,-4.75032 -2.24813,1.79233 -2.49121,5.77153 -5.1172,6.94278 -3.46537,1.54563 -7.53812,-1.21415 -11.33093,-1.09623 -3.08321,0.0959 -6.20129,0.51751 -9.13785,1.46164 -3.11229,1.00061 -6.00916,2.63818 -8.77235,4.38491 -3.00762,1.90123 -5.6134,4.37369 -8.40683,6.57737 -4.40485,3.47488 -7.08548,13.37752 -5.48273,19.36671 0.45083,1.68471 2.43327,3.02298 2.19307,4.75032 -0.199,1.43085 -4.62805,2.22764 -5.84819,5.84655 -0.74043,2.19607 -0.44953,4.77329 0.3655,6.9428 0.76269,2.03018 2.33967,3.74497 4.02064,5.11572 1.26671,1.03293 2.8906,1.53297 4.3862,2.19246 1.55268,0.68466 3.11735,1.37024 4.75166,1.82705 z"
     id="path11-6"
     sodipodi:nodetypes="ssssssssssssssssssssssssssssssssssssss" /><path
     style="fill:#6ed975;fill-opacity:1;stroke-width:6.0846"
     d="m 30.609744,226.49219 c 5.96119,1.5866 12.09253,2.85881 18.27571,3.13149 4.2754,0.18854 8.58504,-0.29985 12.79303,-1.04384 4.73889,-0.83784 9.4333,-5.57581 13.88953,-3.82736 1.97681,0.77563 2.56128,9.52895 14.62058,13.2218 3.36554,1.03062 7.08708,0.72765 10.599896,0.34795 16.323,-1.76439 13.77875,-8.02178 19.37227,-9.0465 2.99105,-0.54796 5.73024,2.28969 8.77233,2.43559 3.34132,0.16027 6.84045,-0.3863 9.86889,-1.73971 2.58416,-1.15484 4.6712,-3.19779 6.57926,-5.21913 0.88085,-0.93313 1.07203,-2.47193 2.19308,-3.13147 3.34234,-1.96638 8.08121,0.0731 11.69646,-1.39177 3.02889,-1.22733 5.91909,-3.26489 7.6758,-5.91502 1.67164,-2.52178 2.23607,-5.71698 2.19309,-8.69856 -0.0451,-3.12258 -0.99604,-6.3006 -2.5586,-9.04649 -1.47954,-2.59998 -3.51674,-5.14385 -6.21374,-6.6109 -2.69701,-1.46705 -6.79388,0.20061 -9.13787,-1.73971 -1.94814,-1.61265 -1.22893,-4.85227 -2.5586,-6.95885 -1.11017,-1.75883 -2.56035,-3.43258 -4.38616,-4.52324 -4.40643,-2.63218 -10.50879,-2.39343 -10.59992,-2.43559 -1.95103,-0.90268 -2.32349,-3.5851 -4.02066,-4.87119 -1.79095,-1.35716 -3.99226,-2.25771 -6.21374,-2.78353 -2.48581,-0.58841 -5.13133,-0.62861 -7.6758,-0.34795 -1.7622,0.19438 -3.45404,0.80423 -5.1172,1.39176 -1.63547,0.57776 -3.70166,3.41374 -4.75169,2.08766 -7.816788,-9.8718 -21.276016,-16.397 -36.916936,-4.52324 -2.24813,1.70665 -2.49121,5.49563 -5.1172,6.61089 -3.46537,1.47175 -7.53812,-1.15611 -11.33093,-1.04382 -3.08321,0.0913 -6.20129,0.49277 -9.13785,1.39177 -3.11229,0.95277 -6.00916,2.51207 -8.77235,4.1753 -3.00762,1.81034 -5.6134,4.16461 -8.40683,6.26295 -4.40485,3.30878 -7.08548,12.73805 -5.48273,18.44094 0.45083,1.60417 2.43327,2.87847 2.19307,4.52324 -0.199,1.36245 -4.62805,2.12115 -5.84819,5.56707 -0.74043,2.09109 -0.44953,4.54512 0.3655,6.61092 0.76269,1.93313 2.33967,3.56595 4.02064,4.87118 1.26671,0.98355 2.8906,1.45969 4.3862,2.08765 1.55268,0.65193 3.11735,1.30474 4.75166,1.73971 z"
     id="path11-6-7"
     sodipodi:nodetypes="ssssssssssssssssssssssssssssssssssssss" /><path
     style="fill:#6ed975;fill-opacity:1;stroke-width:4.89235"
     d="m 92.73082,133.16699 c 4.79312,1.27571 9.72304,2.29863 14.69465,2.51788 3.43766,0.1516 6.90284,-0.24109 10.28629,-0.8393 3.81032,-0.67367 7.58488,-4.48325 11.16793,-3.0774 1.58946,0.62364 2.0594,7.66178 11.75573,10.63103 2.70607,0.82868 5.69839,0.58507 8.52289,0.27977 13.12456,-1.41866 11.07886,-6.44994 15.57634,-7.27387 2.40496,-0.44059 4.60743,1.84104 7.05343,1.95835 2.6866,0.12886 5.50009,-0.31061 7.93511,-1.39882 2.07781,-0.92856 3.7559,-2.5712 5.29009,-4.19646 0.70825,-0.75029 0.86197,-1.98757 1.76335,-2.51788 2.68742,-1.58107 6.49773,0.0588 9.40459,-1.11905 2.43539,-0.98684 4.75926,-2.62515 6.17175,-4.756 1.34409,-2.02764 1.79792,-4.59676 1.76336,-6.99411 -0.0363,-2.51072 -0.80087,-5.06602 -2.05725,-7.27386 -1.18963,-2.09053 -2.82765,-4.13593 -4.99618,-5.31552 -2.16854,-1.17959 -5.46264,0.1613 -7.34734,-1.39882 -1.56641,-1.29666 -0.98812,-3.901489 -2.05725,-5.595292 -0.89264,-1.414194 -2.05866,-2.759979 -3.52671,-3.636929 -3.54301,-2.116414 -8.44963,-1.924446 -8.5229,-1.958345 -1.56874,-0.725803 -1.86822,-2.882613 -3.23283,-3.916699 -1.44002,-1.091229 -3.20999,-1.81532 -4.99618,-2.238108 -1.99873,-0.473113 -4.12587,-0.505436 -6.17176,-0.27977 -1.4169,0.156292 -2.77723,0.646644 -4.1145,1.11905 -1.31501,0.46455 -2.97634,2.74483 -3.82062,1.678591 -6.28512,-7.937458 -17.10706,-13.18407 -29.6832,-3.636929 -1.80762,1.372239 -2.00307,4.418783 -4.11451,5.315512 -2.78634,1.183366 -6.06105,-0.929575 -9.11067,-0.839288 -2.47907,0.07341 -4.98617,0.396214 -7.34733,1.119058 -2.50244,0.766078 -4.83168,2.019839 -7.05344,3.357166 -2.41829,1.455611 -4.513473,3.34857 -6.759542,5.035748 -3.541737,2.660435 -5.697107,10.242075 -4.40841,14.827505 0.362491,1.28984 1.95648,2.31445 1.763346,3.63693 -0.160007,1.09548 -3.721201,1.70552 -4.702259,4.47623 -0.595346,1.68135 -0.361446,3.65452 0.293881,5.31553 0.613244,1.55434 1.881221,2.86722 3.232811,3.91669 1.018503,0.79083 2.324198,1.17367 3.526741,1.67859 1.248438,0.52418 2.506519,1.04908 3.820592,1.39882 z"
     id="path11-6-7-5"
     sodipodi:nodetypes="ssssssssssssssssssssssssssssssssssssss" /><path
     style="fill:#6ed975;fill-opacity:1;stroke-width:3.75067"
     d="m 38.688367,151.41383 c 3.6397,0.98739 7.383286,1.77913 11.158521,1.94883 2.610422,0.11734 5.241736,-0.18661 7.810999,-0.64962 2.893401,-0.52141 5.75965,-3.47 8.480466,-2.38188 1.206973,0.48269 1.563835,5.93017 8.926833,8.22835 2.054887,0.64138 4.327133,0.45284 6.471933,0.21654 9.966265,-1.09804 8.412844,-4.99221 11.828043,-5.62993 1.826235,-0.34101 3.4987,1.42494 5.356096,1.51574 2.040092,0.0998 4.176552,-0.2404 6.025602,-1.08267 1.5778,-0.7187 2.85207,-1.99009 4.01708,-3.24803 0.53781,-0.58072 0.65454,-1.53836 1.33902,-1.94882 2.04072,-1.22374 4.93411,0.0455 7.14145,-0.86614 1.84934,-0.76381 3.614,-2.03185 4.68659,-3.68111 1.02064,-1.56938 1.36527,-3.55786 1.33902,-5.41339 -0.0275,-1.94328 -0.60815,-3.92107 -1.56219,-5.62992 -0.90336,-1.61805 -2.14721,-3.20119 -3.7939,-4.11419 -1.6467,-0.91299 -4.14811,0.12485 -5.57927,-1.08267 -1.18947,-1.0036 -0.75035,-3.01972 -1.56219,-4.33072 -0.67784,-1.09457 -1.56327,-2.1362 -2.67805,-2.81495 -2.69041,-1.63809 -6.4163,-1.48951 -6.47194,-1.51575 -1.19123,-0.56176 -1.41865,-2.23112 -2.454888,-3.03149 -1.093487,-0.84461 -2.437533,-1.40505 -3.793886,-1.73229 -1.51776,-0.36618 -3.133016,-0.3912 -4.686588,-0.21654 -1.075934,0.12097 -2.108913,0.5005 -3.124389,0.86614 -0.998565,0.35956 -2.2601,2.12448 -2.901222,1.29921 -4.77266,-6.14354 -12.990414,-10.20438 -22.54022,-2.81495 -1.372629,1.0621 -1.521052,3.42011 -3.124389,4.11416 -2.11584,0.91593 -4.602517,-0.71948 -6.918277,-0.64959 -1.882508,0.0568 -3.786305,0.30667 -5.579266,0.86614 -1.900258,0.59294 -3.668983,1.56334 -5.3561,2.59843 -1.836347,1.12663 -3.427344,2.59176 -5.132922,3.89763 -2.689447,2.05916 -4.326154,7.92729 -3.347566,11.47639 0.275255,0.99832 1.48567,1.79136 1.339012,2.81496 -0.121508,0.84789 -2.825725,1.32005 -3.570701,3.46456 -0.452089,1.30135 -0.27447,2.82857 0.223156,4.11419 0.465676,1.20305 1.428526,2.21921 2.454867,3.03149 0.773408,0.6121 1.764905,0.90841 2.678066,1.29922 0.948015,0.40571 1.903345,0.81198 2.9012,1.08267 z"
     id="path11-6-7-5-3"
     sodipodi:nodetypes="ssssssssssssssssssssssssssssssssssssss" /><path
     style="fill:#6ed975;fill-opacity:1;stroke-width:2.83673"
     d="m 329.83292,118.92449 c 2.7792,0.7397 5.63772,1.33282 8.5204,1.45995 1.99326,0.0879 4.00247,-0.1398 5.96431,-0.48665 2.20933,-0.39062 4.39794,-2.59953 6.47549,-1.78438 0.92162,0.36161 1.19411,4.44254 6.81634,6.1642 1.56906,0.48049 3.3041,0.33925 4.94182,0.16222 7.61002,-0.82259 6.42386,-3.73987 9.03163,-4.21761 1.39448,-0.25547 2.67153,1.06748 4.0898,1.13551 1.55777,0.0748 3.18911,-0.1801 4.60101,-0.81108 1.20477,-0.53841 2.17778,-1.49086 3.06736,-2.43324 0.41066,-0.43503 0.4998,-1.15244 1.02245,-1.45994 1.55824,-0.91675 3.76756,0.0341 5.45304,-0.64886 1.41212,-0.5722 2.75958,-1.52214 3.57859,-2.75766 0.77934,-1.1757 1.04249,-2.66535 1.02244,-4.0554 -0.021,-1.45579 -0.46436,-2.93744 -1.19285,-4.21761 -0.68978,-1.21214 -1.63956,-2.39814 -2.89694,-3.0821 -1.25738,-0.68396 -3.16741,0.0935 -4.26021,-0.81108 -0.90825,-0.75184 -0.57295,-2.262199 -1.19285,-3.244323 -0.51758,-0.81999 -1.19368,-1.600314 -2.0449,-2.108794 -2.05434,-1.227164 -4.89935,-1.115852 -4.94183,-1.135509 -0.9096,-0.420842 -1.08325,-1.671425 -1.8745,-2.271018 -0.83496,-0.632729 -1.86125,-1.052578 -2.89693,-1.297725 -1.15893,-0.274324 -2.3923,-0.293069 -3.57857,-0.162223 -0.82156,0.09063 -1.61032,0.374949 -2.38572,0.648862 -0.76248,0.269363 -1.72576,1.591533 -2.21531,0.973293 -3.64429,-4.602378 -9.91919,-7.644519 -17.21121,-2.108794 -1.04811,0.79566 -1.16144,2.56214 -2.38571,3.082088 -1.61561,0.686155 -3.51438,-0.538997 -5.28265,-0.486639 -1.43744,0.04255 -2.89114,0.229737 -4.2602,0.648863 -1.451,0.444195 -2.80155,1.171159 -4.0898,1.946586 -1.40219,0.844009 -2.61704,1.941601 -3.91939,2.919881 -2.0536,1.542602 -3.30335,5.938662 -2.55612,8.597442 0.21018,0.74788 1.13442,1.34198 1.02244,2.1088 -0.0928,0.63519 -2.15766,0.98891 -2.72651,2.59545 -0.34521,0.97489 -0.20958,2.11899 0.1704,3.0821 0.35558,0.90126 1.09079,1.66251 1.87448,2.27102 0.59055,0.45855 1.34764,0.68053 2.04491,0.97329 0.72388,0.30394 1.45335,0.6083 2.21529,0.81108 z"
     id="path11-6-7-5-3-5"
     sodipodi:nodetypes="ssssssssssssssssssssssssssssssssssssss" /><path
     style="fill:#744e31;fill-opacity:1;stroke-width:12.805"
     d="m 343.22805,349.73055 c -12.00571,1.28824 -11.76581,-23.87793 -0.58337,-46.08626 l -13.12583,-2.04179 c -2.63848,26.11604 -2.41107,74.57752 3.30004,63.58737 z"
     id="path12"
     sodipodi:nodetypes="ccccc" /><path
     style="fill:#744e31;fill-opacity:1;stroke-width:12.805"
     d="m 328.56037,326.91035 c -12.01475,-6.09747 -9.78385,-15.86417 -12.99391,-23.5128 l -4.95007,2.06253 c 4.72008,10.51418 9.58486,25.02408 18.76899,30.93789 z"
     id="path13"
     sodipodi:nodetypes="ccccc" /><path
     style="fill:#6ed975;fill-opacity:1;stroke-width:5.16246"
     d="m 282.54917,310.22577 c 4.93538,1.37952 10.01164,2.48568 15.13082,2.72278 3.53969,0.16393 7.10774,-0.26071 10.59161,-0.9076 3.92343,-0.7285 7.81002,-4.84809 11.49942,-3.32783 1.63664,0.6744 2.12054,8.28526 12.10468,11.49613 2.7864,0.89611 5.86753,0.63269 8.77587,0.30254 13.51414,-1.5341 11.40771,-6.9748 16.03869,-7.86578 2.47635,-0.47644 4.74418,1.99085 7.26279,2.11771 2.76635,0.13934 5.66335,-0.33589 8.17065,-1.51265 2.13948,-1.00412 3.86738,-2.78043 5.4471,-4.53795 0.72927,-0.81135 0.88756,-2.14931 1.8157,-2.72277 2.76719,-1.70972 6.6906,0.0636 9.68374,-1.21011 2.50767,-1.06714 4.90052,-2.83877 6.35495,-5.14302 1.38398,-2.19264 1.85128,-4.97082 1.8157,-7.56325 -0.0373,-2.71503 -0.82464,-5.47827 -2.11831,-7.86578 -1.22495,-2.26064 -2.91159,-4.47249 -5.14449,-5.74807 -2.23291,-1.27557 -5.62479,0.17443 -7.56543,-1.51264 -1.6129,-1.40217 -1.01745,-4.21898 -2.11831,-6.05061 -0.91913,-1.52927 -2.11977,-2.98457 -3.63139,-3.93289 -3.64818,-2.28863 -8.70044,-2.08104 -8.77589,-2.1177 -1.6153,-0.78486 -1.92366,-3.11718 -3.32879,-4.23542 -1.48276,-1.18003 -3.30527,-1.96304 -5.14447,-2.42023 -2.05806,-0.51161 -4.24834,-0.54656 -6.35495,-0.30254 -1.45896,0.16901 -2.85968,0.69927 -4.23664,1.21011 -1.35403,0.50236 -3.06467,2.9682 -3.93402,1.81519 -6.47168,-8.58336 -17.61485,-14.25692 -30.56428,-3.93289 -1.86127,1.48391 -2.06252,4.77837 -4.23663,5.74807 -2.86906,1.27966 -6.24097,-1.00522 -9.38111,-0.90759 -2.55265,0.0794 -5.13417,0.42845 -7.56541,1.21012 -2.57672,0.82842 -4.9751,2.18421 -7.2628,3.63036 -2.49007,1.57406 -4.64745,3.62106 -6.96019,5.44553 -3.64686,2.87693 -5.86621,11.07553 -4.53926,16.03409 0.37325,1.39481 2.01455,2.50279 1.81569,3.93289 -0.16476,1.18463 -3.83166,1.8443 -4.84184,4.84048 -0.61301,1.81817 -0.37217,3.9519 0.30261,5.74808 0.63144,1.68083 1.93706,3.10054 3.32877,4.23541 1.04873,0.85518 2.39318,1.26917 3.63142,1.81518 1.2855,0.56685 2.58092,1.13445 3.934,1.51265 z"
     id="path11-6-6"
     sodipodi:nodetypes="ssssssssssssssssssssssssssssssssssssss" /></svg>
