<?xml version="1.0" encoding="UTF-8" standalone="no"?>
<svg
   id="Layer_2"
   viewBox="0 0 622.78 626.02"
   version="1.1"
   sodipodi:docname="logo.svg"
   inkscape:export-filename="wobblycreationslogo.png"
   inkscape:export-xdpi="96"
   inkscape:export-ydpi="96"
   inkscape:version="1.3.2 (091e20ef0f, 2023-11-25)"
   xmlns:inkscape="http://www.inkscape.org/namespaces/inkscape"
   xmlns:sodipodi="http://sodipodi.sourceforge.net/DTD/sodipodi-0.dtd"
   xmlns="http://www.w3.org/2000/svg"
   xmlns:svg="http://www.w3.org/2000/svg">
  <sodipodi:namedview
     id="namedview9"
     pagecolor="#ffffff"
     bordercolor="#000000"
     borderopacity="0.25"
     inkscape:showpageshadow="2"
     inkscape:pageopacity="0.0"
     inkscape:pagecheckerboard="0"
     inkscape:deskcolor="#d1d1d1"
     inkscape:zoom="1.0192414"
     inkscape:cx="28.452533"
     inkscape:cy="241.84653"
     inkscape:window-width="1444"
     inkscape:window-height="1243"
     inkscape:window-x="0"
     inkscape:window-y="0"
     inkscape:window-maximized="0"
     inkscape:current-layer="Layer_2" />
  <defs
     id="defs1">
    <style
       id="style1">
      .cls-1 {
        fill: #3e2718;
      }

      .cls-2 {
        fill: #fefefe;
      }

      .cls-3 {
        fill: #308a21;
      }
    </style>
  </defs>
  <g
     id="Layer_1-2"
     data-name="Layer_1">
    <g
       id="g9">
      <path
         class="cls-1"
         d="M245.96,399.03c2.09,7.78,4.45,15.5,6.22,23.35,7.5,33.3,16.41,65.98,35.02,95.26,7.56,11.9,17.45,21.76,26.01,32.75,11.16,14.34,26.6,23.36,40.42,34.46,8.13,6.53,15.41,6.86,24.95,4.38,32.37-8.41,63.43-19.83,90.82-39.28,42.39-30.1,73.68-69.58,96.25-116.28,13.64-28.24,21.07-58.06,24.07-89.1,2.01-20.8,1.03-41.55-1.38-62.28-3.96-34.05-13.06-66.59-28.16-97.38-26.06-53.09-64.01-94.91-116.29-123.48-23.32-12.74-47.9-21.75-73.73-27.14-23.79-4.96-48.03-6.72-72.34-5.33-33.08,1.9-65.26,8.2-95.62,21.98-18.32,8.31-35.44,18.69-51.41,30.99-5.92,4.56-12.36,8.47-15.82,15.49-.89,1.8-2.11,1.47-3.72,1.05-11.28-2.93-22.62-5.66-33.89-8.61-4.37-1.14-1.27-3.29-.1-4.41,6.14-5.83,12.52-11.36,19.2-16.59,31.62-24.74,66.32-43.61,104.55-56,19.62-6.36,39.76-9.71,60.23-11.58,20.3-1.86,40.63-1.61,60.85.21,39.15,3.53,76.18,14.57,111.41,32.23,29.29,14.68,55.3,33.6,78.44,56.62,26.64,26.49,46.32,57.58,61.83,91.7,12.93,28.44,21.19,58.08,25.78,88.82,4.68,31.32,4.03,62.64-.39,94.02-3.17,22.51-9.54,44.09-18.53,64.74-8.21,18.88-17.55,37.27-29.38,54.38-17.37,25.11-36.57,48.57-59.25,68.97-17.63,15.86-37.71,28.31-58.69,39.35-30.19,15.88-62.49,24.63-96.03,29.8-24.82,3.82-49.73,5.13-74.64,2.63-40.59-4.06-79.13-15.3-115.02-35.11-30.53-16.85-58.57-37.08-81.79-63.16-37.31-41.91-64.15-89.71-77.95-144.42C.03,350.91-1.06,319.32.77,287.42c.93-16.16,2.33-32.21,5.27-48.11.92-4.99,1.82-10.03,5.04-15.41,1.58,9.6,3.22,18.18,4.38,26.83,2.24,16.69,5.94,33.09,11.1,49.04,5.67,17.52,5.97,35.72,8.59,53.63,4.34,29.7,12.76,58.07,26.81,84.78,13.56,25.79,29.77,49.66,49.51,71.06,22.23,24.1,48.32,43.13,77.44,58.09,24.66,12.67,50.47,21.98,77.95,26.12,18.94,2.86,38,4.5,57.18,2.61,1.29-.13,2.88,0,3.21-1.68.29-1.5-.95-2.41-1.95-3.26-7.23-6.13-15.41-11.08-22.19-17.77-21.04-20.74-37.81-44.54-50.79-71.03-11.71-23.91-17.7-49.58-23.01-75.46-1.25-6.11-1.25-12.63-4.83-18.14-1.26-1.64-.98-3.07.61-4.31,7.1-.65,12.95-5.7,20.22-5.8.22.14.45.28.67.42Z"
         id="path1" />
      <path
         class="cls-3"
         d="M225.28,404.99c-1.08,1.07-.66,2.46-.81,3.73-28.34,1.51-55.89-2.09-81.93-13.77-23.2-10.41-43.45-24.69-59.63-44.85-13.44-16.74-23.63-35.21-31.66-54.8-5.68-13.85-9.2-28.59-12.31-43.28-5.17-24.43-9.66-49.02-15.1-73.39-4.05-18.16-7.84-36.36-11.26-54.64-.88-4.72-1.85-9.42-2.62-14.16-.42-2.58-.37-4.12,3.53-3.66,17.56,2.07,35.29,2.94,52.77,5.5,37.88,5.55,74.96,14.22,109.88,30.65,21.89,10.3,41.89,23.25,60.02,39.31,21.94,19.44,38.14,42.75,47.91,70.27,6.22,17.53,10.19,35.73,9.97,54.47-.35,31.01-10.18,58.48-31.92,81.14-4.12,4.29-8.19,8.73-14.55,9.78-.62.1-1.08,1.14-1.61,1.74,0,0,.1.02.1.02-2.4-2.96-1.81-6.6-1.67-9.85.38-8.87-1.78-17.23-4.52-25.44-8.57-25.67-20.13-49.98-32.99-73.78-7.48-13.83-16.52-26.59-24.96-39.76-4.59-7.16-10.68-13.2-16.27-19.58-15.91-18.17-32.63-35.59-51.55-50.67-12.51-9.97-25.87-18.77-39.98-26.38-2.67-1.44-5.55-2.21-8.58-2.53-2.39-.25-3.23.54-2.11,2.79,1.05,2.09,2.34,4.04,4.13,5.59,13.1,11.35,25.66,23.31,37.46,35.97,22.26,23.88,44.27,48.01,62.4,75.3,17.76,26.74,32.62,54.99,43.18,85.38,1.8,5.19,3.22,10.53,4.37,15.9,1.96,9.19,5.55,17.77,8.98,26.43.81,2.06,2.52,4.05,1.31,6.56Z"
         id="path2" />
      <path
         class="cls-1"
         d="M423.42,214.03c1.57-40.38-33.4-76.59-67.03-81.45-21.92-3.16-42.29.81-60.94,13.21-10.92,7.26-20.67,15.54-27.19,27.13-1.92,3.42-3.68,3.44-6.33.44-10.02-11.32-21.83-20.45-35.02-27.8-2.07-1.15-3.92-2.17-3.36-5.26.47-2.6-1.42-4.65-2.88-6.68-3.12-4.34-5.61-9.02-7.62-13.98-1.48-3.66-1.1-6.48,2.12-9.27,8.3-7.2,16.34-14.69,24.44-22.1,3.14-2.87,6.2-3,9.96-.89,6.9,3.87,12.66,9.17,18.53,14.29,2.37,2.06,3.77,2.15,6.35.54,10.38-6.5,21.42-11.33,33.86-12.24,3.32-.24,4.86-2.36,5.65-5.41,1.8-6.91,3.66-13.81,5.65-20.67,2.11-7.28,2.97-7.82,10.36-7.85,8-.03,16,.1,23.98-.28,4.66-.22,7.32,1.04,8.79,5.83,2.14,7,4.38,13.98,5.55,21.19.77,4.74,2.41,6.89,7.75,7.56,11.26,1.42,22.02,5.16,31.51,11.62,3.44,2.34,5.88,1.93,8.88-.41,6.03-4.71,12.4-8.95,18.77-13.2,2.98-1.99,5.18-1.78,7.46.43,8.12,7.89,16.16,15.87,24.26,23.79,3.21,3.13,3.66,6.58,1.3,10.33-4.07,6.46-7.97,13.05-12.45,19.23-1.74,2.41-1.48,4.04-.34,6.22,3.14,6.04,6.24,12.11,9.35,18.17,1.76,3.42,3.21,7.02,3.67,10.81.55,4.51,3.2,5.93,7.26,6.64,7.32,1.29,14.56,3.04,21.83,4.61,3.6.78,5.14,2.72,5.07,6.69-.21,11.81-.16,23.63.13,35.44.11,4.52-2.12,6.23-5.99,7.01-7.45,1.49-14.88,3.12-22.35,4.49-3.8.7-6.31,2.06-6.9,6.42-.41,3.06-1.48,6.31-3.18,8.85-3.76,5.63-4.63,12.4-7.85,18.18-1.34,2.41-.52,4.39.81,6.48,3.48,5.47,6.95,10.94,10.22,16.54,3.21,5.49,2.89,7.83-1.48,12.44-6.74,7.13-13.49,14.27-20.4,21.24-5.97,6.04-8.18,6.3-15.1,1.64-4.82-3.25-9.4-6.86-13.96-10.47-2.7-2.14-4.74-2.23-7.81-.09-10.32,7.21-22.08,11.34-34.16,14.5-3.31.86-5.03,2.45-6.06,5.7-2.32,7.33-5.59,14.34-7.12,21.96-.53,2.62-2.64,4.45-5.75,4.79-10.31,1.12-20.64.4-30.96.69-2.56.07-3.55-1.83-4.14-3.67-2.17-6.8-3.92-13.74-7.11-20.19-.71-1.44-.3-2.98.04-4.42,3.63-15.73,4.24-31.66,3.08-47.67-.43-5.91,3.6-4.27,6.23-3.81,7.04,1.24,14.03,2.95,21.22,2.56,29.4-1.6,52.52-14.49,68.59-39.23,7.87-12.12,10.94-25.82,10.79-40.64Z"
         id="path3" />
      <path
         id="path4"
         class="cls-1"
         d="M 451.24414 338.81836 C 449.71197 338.68682 447.66664 339.1557 444.40039 339.93945 C 427.77041 343.91945 431.08945 342.3097 429.68945 356.67969 C 429.03945 363.31968 424.62921 366.70062 418.19922 365.14062 C 415.12922 364.40063 412.06 363.66086 409 362.88086 C 407.09 362.39086 405.2207 362.52914 403.9707 364.11914 C 399.84071 369.35914 395.34039 374.74915 394.40039 381.36914 C 393.70039 386.29914 399.24992 388.92086 401.91992 392.63086 C 402.20992 393.03086 402.60992 393.36 402.91992 393.75 C 405.40992 396.85 404.92976 401.84008 401.75977 404.33008 C 400.05977 405.66008 398.15031 406.71914 396.32031 407.86914 C 390.72032 411.38247 388.60714 416.29295 389.98047 422.59961 C 391.88713 431.34627 397.67009 436.07263 407.33008 436.7793 C 413.26007 437.2093 416.51078 441.62907 415.05078 447.28906 C 414.64078 448.89906 414.15 450.48961 413.75 452.09961 C 411.53 460.9896 411.6004 461.16954 419.40039 466.26953 C 431.63038 474.27952 431.88001 474.26062 442.75 464.39062 C 447.18 460.36063 452.01977 460.95016 455.25977 465.91016 C 456.25976 467.44015 457.21922 469.01078 458.19922 470.55078 C 463.00921 478.09077 463.97079 478.69914 472.80078 476.36914 C 488.13077 472.32914 485.93969 473.25921 486.42969 460.69922 C 486.63969 455.43922 488.89008 451.96008 493.58008 450.58008 C 496.58008 449.70008 499.7 451.62914 502.75 452.36914 C 510.37999 454.22914 511.65094 453.77952 515.96094 447.26953 C 521.56093 438.82287 521.01364 430.78682 514.32031 423.16016 C 510.46032 418.77016 510.98 414.29093 515.75 410.96094 C 516.84 410.19094 517.95984 409.47953 519.08984 408.76953 C 525.36317 404.82954 527.71396 399.29348 526.14062 392.16016 C 526.04063 391.67016 525.90906 391.18922 525.78906 390.69922 C 524.22906 384.09256 520.20736 380.41039 513.7207 379.65039 C 512.0607 379.46039 510.40023 379.37 508.74023 379.25 C 502.93024 378.82 499.64 374.32093 501 368.71094 C 501.83 365.31094 502.60039 361.90976 503.40039 358.50977 L 503.40039 358.51953 C 503.95039 355.75953 502.51094 353.98961 500.46094 352.59961 C 497.84094 350.82961 495.2007 349.07047 492.4707 347.48047 C 484.33071 342.74047 483.60015 342.83969 476.41016 349.17969 C 475.16016 350.27969 473.94969 351.42 472.67969 352.5 C 469.26969 355.39 464.49922 355.10039 461.69922 351.65039 C 460.23922 349.86039 459.11039 347.79078 457.90039 345.80078 C 454.92539 340.92579 453.79775 339.0376 451.24414 338.81836 z M 457.26953 369.99023 C 477.44951 370.02023 494.57922 387.22963 494.44922 407.34961 C 494.31922 427.37959 477.37912 444.23047 457.36914 444.23047 C 437.10916 444.23047 420.18023 427.21037 420.24023 406.90039 C 420.30023 386.93041 437.32955 369.95023 457.26953 369.99023 z " />
      <path
         id="path5"
         class="cls-1"
         d="M 340.92383 170.88477 C 336.48755 170.92043 332.11554 171.55242 328.0293 172.74023 C 314.77931 176.59023 305.33921 185.02025 299.69922 197.49023 C 297.10922 203.22023 294.49946 209.42954 296.93945 215.76953 C 301.55945 227.76952 305.04931 240.88954 315.7793 249.01953 C 329.76928 259.62952 345.66962 260.21999 360.84961 252 C 375.63959 243.99001 382.93078 230.37959 384.55078 213.84961 L 384.55078 213.83984 C 384.98078 207.14985 383.57093 201.07921 380.96094 195.19922 C 373.44532 178.2383 356.76768 170.75739 340.92383 170.88477 z M 341.00977 191.91016 C 352.78975 192.05016 362.74008 201.86017 363.58008 213.66016 C 364.36008 224.60015 352.67085 235.83922 341.63086 235.94922 C 329.84087 236.05922 318.37937 225.09944 318.35938 213.68945 C 318.33938 201.77947 328.61978 191.88992 341.00977 191.91992 L 341.00977 191.91016 z " />
      <path
         id="path6"
         class="cls-1"
         d="M 340.94141 397.13086 C 339.94813 397.06389 338.8825 397.2257 337.75 397.43945 C 334.37 398.07945 332.76969 399.99063 332.67969 403.64062 C 332.55969 408.48062 330.52992 410.29086 326.16992 409.13086 C 322.60993 408.18086 320.44937 408.38961 318.35938 411.84961 C 316.12938 415.54961 316.65047 418.17008 319.48047 421.08008 C 322.41047 424.10008 321.44 426.67016 318 428.66016 C 315.36 430.19015 313.14 431.54063 314.25 435.64062 C 315.27 439.41062 316.78071 441.27063 320.7207 441.64062 C 326.1307 442.15062 327.06953 443.69938 325.76953 449.10938 C 324.99953 452.27937 325.68907 454.37 328.78906 456 C 331.63906 457.5 333.94961 458.66054 336.84961 456.06055 C 341.2896 452.08055 343.20961 452.10915 346.09961 457.11914 C 348.33961 461.00914 351.14039 460.00953 354.15039 459.51953 C 357.14039 459.02953 358.42094 457.32086 358.71094 454.13086 C 359.27094 448.07087 360.61993 447.34078 366.91992 448.55078 C 367.40992 448.64078 367.90023 448.70969 367.74023 448.67969 C 372.21023 449.15969 372.7107 445.76961 374.2207 443.59961 C 375.8607 441.23961 374.90062 439.39945 373.14062 437.43945 C 369.17063 433.01946 369.30915 431.39922 373.86914 428.44922 C 376.29914 426.87922 378.11016 425.32007 377.16016 422.08008 C 376.23016 418.89008 375.66984 415.96969 371.08984 415.67969 C 365.60985 415.32969 363.9593 412.86031 365.5293 407.82031 C 366.5793 404.44032 365.43054 402.93094 362.81055 401.46094 C 359.97055 399.87094 357.52086 398.40008 354.38086 401.33008 C 349.87086 405.53007 348.21906 405.39945 345.28906 400.18945 C 344.05156 397.98946 342.59687 397.24248 340.94141 397.13086 z M 345.5 409.99023 C 354.94999 410.04023 363.64078 418.84907 363.55078 428.28906 C 363.46081 437.91585 355.08507 446.13531 345.2793 446.2207 C 335.77931 446.2907 327.31953 437.73929 327.26953 428.0293 C 327.22953 418.61931 336.00001 409.95023 345.5 409.99023 z " />
    </g>
  </g>
</svg>
